# Blender v2.70 (sub 0) OBJ File: ''
# www.blender.org
v 0.000000 -1.000000 1.000000
v 0.000000 1.000000 1.000000
v -0.195090 -1.000000 0.980785
v -0.195090 1.000000 0.980785
v -0.382683 -1.000000 0.923880
v -0.382683 1.000000 0.923880
v -0.555570 -1.000000 0.831470
v -0.555570 1.000000 0.831470
v -0.707107 -1.000000 0.707107
v -0.707107 1.000000 0.707107
v -0.831470 -1.000000 0.555570
v -0.831470 1.000000 0.555570
v -0.923880 -1.000000 0.382683
v -0.923880 1.000000 0.382683
v -0.980785 -1.000000 0.195090
v -0.980785 1.000000 0.195090
v -1.000000 -1.000000 0.000000
v -1.000000 1.000000 0.000000
v -0.980785 -1.000000 -0.195090
v -0.980785 1.000000 -0.195090
v -0.923880 -1.000000 -0.382683
v -0.923880 1.000000 -0.382683
v -0.831470 -1.000000 -0.555570
v -0.831470 1.000000 -0.555570
v -0.707107 -1.000000 -0.707107
v -0.707107 1.000000 -0.707107
v -0.555570 -1.000000 -0.831470
v -0.555570 1.000000 -0.831470
v -0.382683 -1.000000 -0.923880
v -0.382683 1.000000 -0.923880
v -0.195090 -1.000000 -0.980785
v -0.195090 1.000000 -0.980785
v 0.000000 -1.000000 -1.000000
v 0.000000 1.000000 -1.000000
v 0.195091 -1.000000 -0.980785
v 0.195091 1.000000 -0.980785
v 0.382684 -1.000000 -0.923879
v 0.382684 1.000000 -0.923879
v 0.555571 -1.000000 -0.831469
v 0.555571 1.000000 -0.831469
v 0.707107 -1.000000 -0.707106
v 0.707107 1.000000 -0.707106
v 0.831470 -1.000000 -0.555570
v 0.831470 1.000000 -0.555570
v 0.923880 -1.000000 -0.382683
v 0.923880 1.000000 -0.382683
v 0.980785 -1.000000 -0.195089
v 0.980785 1.000000 -0.195089
v 1.000000 -1.000000 0.000001
v 1.000000 1.000000 0.000001
v 0.980785 -1.000000 0.195091
v 0.980785 1.000000 0.195091
v 0.923879 -1.000000 0.382684
v 0.923879 1.000000 0.382684
v 0.831469 -1.000000 0.555571
v 0.831469 1.000000 0.555571
v 0.707106 -1.000000 0.707108
v 0.707106 1.000000 0.707108
v 0.555569 -1.000000 0.831470
v 0.555569 1.000000 0.831470
v 0.382682 -1.000000 0.923880
v 0.382682 1.000000 0.923880
v 0.195089 -1.000000 0.980786
v 0.195089 1.000000 0.980786
vt 0.518811 0.845812
vt 0.497806 0.828077
vt 0.553391 0.061824
vt 0.477116 0.812457
vt 0.526074 0.046204
vt 0.456629 0.799553
vt 0.496666 0.033300
vt 0.436267 0.789860
vt 0.465090 0.023607
vt 0.415974 0.783752
vt 0.431618 0.017499
vt 0.395712 0.781462
vt 0.396975 0.015209
vt 0.375453 0.783080
vt 0.362231 0.016827
vt 0.355167 0.788542
vt 0.328493 0.022289
vt 0.334820 0.797639
vt 0.296558 0.031386
vt 0.314360 0.810021
vt 0.293712 0.825213
vt 0.239113 0.058960
vt 0.272771 0.842630
vt 0.213323 0.076377
vt 0.251392 0.861604
vt 0.189074 0.095351
vt 0.229387 0.881404
vt 0.166029 0.115151
vt 0.206520 0.901271
vt 0.143894 0.135018
vt 0.182501 0.920441
vt 0.122422 0.154188
vt 0.157002 0.938176
vt 0.101416 0.171923
vt 0.129685 0.953796
vt 0.080726 0.187543
vt 0.100277 0.966700
vt 0.060240 0.200447
vt 0.068701 0.976393
vt 0.039878 0.210140
vt 0.035229 0.982501
vt 0.019585 0.216248
vt 0.828007 0.982501
vt 0.793364 0.984791
vt 0.792101 0.218538
vt 0.758621 0.983173
vt 0.771842 0.216920
vt 0.724882 0.977711
vt 0.751556 0.211458
vt 0.692947 0.968614
vt 0.731209 0.202361
vt 0.663164 0.956231
vt 0.710749 0.189979
vt 0.635502 0.941040
vt 0.690101 0.174787
vt 0.609712 0.923623
vt 0.669160 0.157370
vt 0.585463 0.904649
vt 0.647781 0.138396
vt 0.562418 0.884848
vt 0.625776 0.118596
vt 0.922463 0.953796
vt 1.107139 0.810021
vt 0.540283 0.864982
vt 0.578890 0.079559
vt 0.602909 0.098729
vt 0.266775 0.043768
vt 0.812363 0.216248
vt 0.861479 0.976393
vt 0.893055 0.966700
vt 0.949780 0.938176
vt 0.975279 0.920441
vt 1.022166 0.881404
vt 1.044170 0.861604
vt 0.999298 0.901271
vt 1.065549 0.842630
vt 1.086491 0.825213
vt 1.127599 0.797639
vt 1.147946 0.788542
vt 1.188490 0.781462
vt 1.168231 0.783080
vt 1.059553 0.043768
vt 1.031891 0.058960
vt 1.006102 0.076377
vt 1.155010 0.016827
vt 1.121272 0.022289
vt 1.089337 0.031386
vt 0.981852 0.095351
vt 0.958808 0.115151
vt 0.936673 0.135018
vt 0.915200 0.154188
vt 0.894195 0.171923
vt 0.873505 0.187543
vt 0.853018 0.200447
vt 0.832656 0.210140
vn 0.000000 0.685690 0.727866
vn -0.142003 0.685690 0.713889
vn -0.142003 -0.685690 0.713889
vn -0.278542 0.685690 0.672475
vn -0.278542 -0.685690 0.672475
vn -0.404370 0.685690 0.605213
vn -0.404370 -0.685690 0.605213
vn -0.514664 0.685690 0.514664
vn -0.514664 -0.685690 0.514664
vn -0.605213 0.685690 0.404370
vn -0.605213 -0.685690 0.404370
vn -0.672475 0.685690 0.278542
vn -0.672475 -0.685690 0.278542
vn -0.713889 0.685690 0.142003
vn -0.713889 -0.685690 0.142003
vn -0.727866 0.685690 0.000000
vn -0.727866 -0.685690 0.000000
vn -0.713889 0.685690 -0.142003
vn -0.713889 -0.685690 -0.142003
vn -0.672475 0.685690 -0.278542
vn -0.605213 0.685690 -0.404370
vn -0.605213 -0.685690 -0.404370
vn -0.514664 0.685690 -0.514664
vn -0.514664 -0.685690 -0.514664
vn -0.404370 0.685690 -0.605213
vn -0.404370 -0.685690 -0.605213
vn -0.278542 0.685690 -0.672475
vn -0.278542 -0.685690 -0.672475
vn -0.142003 0.685690 -0.713889
vn -0.142003 -0.685690 -0.713889
vn 0.000000 0.685690 -0.727866
vn 0.000000 -0.685690 -0.727866
vn 0.142003 0.685690 -0.713889
vn 0.142003 -0.685690 -0.713889
vn 0.278542 0.685690 -0.672475
vn 0.278542 -0.685690 -0.672475
vn 0.404370 0.685690 -0.605213
vn 0.404370 -0.685690 -0.605213
vn 0.514664 0.685690 -0.514664
vn 0.514664 -0.685690 -0.514664
vn 0.605213 0.685690 -0.404370
vn 0.605213 -0.685690 -0.404370
vn 0.672475 0.685690 -0.278542
vn 0.672475 -0.685690 -0.278542
vn 0.713889 0.685690 -0.142003
vn 0.713889 -0.685690 -0.142003
vn 0.727866 0.685690 0.000000
vn 0.727866 -0.685690 0.000000
vn 0.713889 0.685690 0.142003
vn 0.713889 -0.685690 0.142003
vn 0.672475 0.685690 0.278542
vn 0.672475 -0.685690 0.278542
vn 0.605213 0.685690 0.404370
vn 0.605213 -0.685690 0.404370
vn 0.514664 0.685690 0.514695
vn 0.514664 -0.685690 0.514695
vn 0.404370 0.685690 0.605213
vn 0.404370 -0.685690 0.605213
vn 0.278542 0.685690 0.672475
vn 0.278542 -0.685690 0.672475
vn 0.142003 0.685690 0.713889
vn 0.000000 -0.685690 0.727866
vn 0.142003 -0.685690 0.713889
vn -0.672475 -0.685690 -0.278542
s 1
f 2/1/1 4/2/2 3/3/3
f 4/2/2 6/4/4 5/5/5
f 6/4/4 8/6/6 7/7/7
f 8/6/6 10/8/8 9/9/9
f 10/8/8 12/10/10 11/11/11
f 12/10/10 14/12/12 13/13/13
f 14/12/12 16/14/14 15/15/15
f 16/14/14 18/16/16 17/17/17
f 18/16/16 20/18/18 19/19/19
f 19/19/19 20/18/18 22/20/20
f 22/20/20 24/21/21 23/22/22
f 24/21/21 26/23/23 25/24/24
f 26/23/23 28/25/25 27/26/26
f 28/25/25 30/27/27 29/28/28
f 30/27/27 32/29/29 31/30/30
f 32/29/29 34/31/31 33/32/32
f 34/31/31 36/33/33 35/34/34
f 36/33/33 38/35/35 37/36/36
f 38/35/35 40/37/37 39/38/38
f 40/37/37 42/39/39 41/40/40
f 42/39/39 44/41/41 43/42/42
f 44/43/41 46/44/43 45/45/44
f 46/44/43 48/46/45 47/47/46
f 48/46/45 50/48/47 49/49/48
f 50/48/47 52/50/49 51/51/50
f 52/50/49 54/52/51 53/53/52
f 54/52/51 56/54/53 55/55/54
f 56/54/53 58/56/55 57/57/56
f 58/56/55 60/58/57 59/59/58
f 60/58/57 62/60/59 61/61/60
f 38/62/35 22/63/20 6/4/4
f 64/64/61 2/1/1 1/65/62
f 62/60/59 64/64/61 63/66/63
f 63/66/63 1/65/62 47/47/46
f 1/65/62 2/1/1 3/3/3
f 3/3/3 4/2/2 5/5/5
f 5/5/5 6/4/4 7/7/7
f 7/7/7 8/6/6 9/9/9
f 9/9/9 10/8/8 11/11/11
f 11/11/11 12/10/10 13/13/13
f 13/13/13 14/12/12 15/15/15
f 15/15/15 16/14/14 17/17/17
f 17/17/17 18/16/16 19/19/19
f 21/67/64 19/19/19 22/20/20
f 21/67/64 22/20/20 23/22/22
f 23/22/22 24/21/21 25/24/24
f 25/24/24 26/23/23 27/26/26
f 27/26/26 28/25/25 29/28/28
f 29/28/28 30/27/27 31/30/30
f 31/30/30 32/29/29 33/32/32
f 33/32/32 34/31/31 35/34/34
f 35/34/34 36/33/33 37/36/36
f 37/36/36 38/35/35 39/38/38
f 39/38/38 40/37/37 41/40/40
f 41/40/40 42/39/39 43/42/42
f 43/68/42 44/43/41 45/45/44
f 45/45/44 46/44/43 47/47/46
f 47/47/46 48/46/45 49/49/48
f 49/49/48 50/48/47 51/51/50
f 51/51/50 52/50/49 53/53/52
f 53/53/52 54/52/51 55/55/54
f 55/55/54 56/54/53 57/57/56
f 57/57/56 58/56/55 59/59/58
f 59/59/58 60/58/57 61/61/60
f 6/4/4 4/2/2 2/1/1
f 44/43/41 42/69/39 40/70/37
f 58/56/55 64/64/61 60/58/57
f 54/52/51 2/1/1 56/54/53
f 54/52/51 52/50/49 50/48/47
f 48/46/45 46/44/43 44/43/41
f 61/61/60 62/60/59 63/66/63
f 38/62/35 44/43/41 40/70/37
f 38/62/35 36/71/33 34/72/31
f 30/73/27 28/74/25 32/75/29
f 26/76/23 34/72/31 28/74/25
f 26/76/23 24/77/21 22/63/20
f 22/63/20 20/78/18 18/79/16
f 14/80/12 22/63/20 16/81/14
f 14/80/12 12/10/10 10/8/8
f 10/8/8 8/6/6 6/4/4
f 54/52/51 50/48/47 48/46/45
f 58/56/55 2/1/1 64/64/61
f 22/63/20 18/79/16 16/81/14
f 44/43/41 38/62/35 2/1/1
f 64/64/61 62/60/59 60/58/57
f 22/63/20 34/72/31 26/76/23
f 2/1/1 58/56/55 56/54/53
f 6/4/4 22/63/20 10/8/8
f 22/63/20 38/62/35 34/72/31
f 2/1/1 48/46/45 44/43/41
f 28/74/25 34/72/31 32/75/29
f 54/52/51 48/46/45 2/1/1
f 6/4/4 2/1/1 38/62/35
f 63/66/63 64/64/61 1/65/62
f 22/63/20 14/80/12 10/8/8
f 21/82/64 23/83/22 25/84/24
f 7/7/7 1/65/62 5/5/5
f 11/11/11 13/13/13 9/9/9
f 9/9/9 13/13/13 15/85/15
f 15/85/15 17/86/17 19/87/19
f 57/57/56 59/59/58 61/61/60
f 27/88/26 21/82/64 25/84/24
f 27/88/26 29/89/28 31/90/30
f 31/90/30 33/91/32 35/92/34
f 37/93/36 39/94/38 43/68/42
f 39/94/38 41/95/40 43/68/42
f 43/68/42 45/45/44 47/47/46
f 47/47/46 49/49/48 51/51/50
f 55/55/54 57/57/56 53/53/52
f 63/66/63 57/57/56 61/61/60
f 1/65/62 31/90/30 47/47/46
f 1/65/62 15/85/15 31/90/30
f 27/88/26 31/90/30 15/85/15
f 57/57/56 63/66/63 47/47/46
f 15/85/15 19/87/19 21/82/64
f 47/47/46 37/93/36 43/68/42
f 1/65/62 7/7/7 9/9/9
f 57/57/56 51/51/50 53/53/52
f 9/9/9 15/85/15 1/65/62
f 21/82/64 27/88/26 15/85/15
f 31/90/30 37/93/36 47/47/46
f 31/90/30 35/92/34 37/93/36
f 1/65/62 3/3/3 5/5/5
f 51/51/50 57/57/56 47/47/46
