# Blender v2.80 (sub 75) OBJ File: ''
# www.blender.org
v -1.622050 1.243777 1.001269
v -1.000000 -1.000000 1.000000
v -2.634500 1.000000 -2.479825
v -1.000000 -1.000000 -1.000000
v 1.860654 1.182862 1.207298
v 1.000000 -1.000000 1.000000
v 1.881223 0.550777 -1.043548
v 1.000000 -1.000000 -1.000000
vt 0.375000 0.000000
vt 0.625000 0.250000
vt 0.375000 0.250000
vt 0.375000 0.250000
vt 0.625000 0.500000
vt 0.375000 0.500000
vt 0.375000 0.750000
vt 0.625000 0.750000
vt 0.375000 1.000000
vt 0.375000 0.500000
vt 0.125000 0.750000
vt 0.125000 0.500000
vt 0.625000 0.500000
vt 0.875000 0.750000
vt 0.625000 0.000000
vt 0.625000 0.250000
vt 0.625000 0.750000
vt 0.625000 1.000000
vt 0.375000 0.750000
vt 0.875000 0.500000
vn 0.1322 0.9854 -0.1075
vn 0.0000 -0.0281 -0.9996
vn 0.8694 -0.4941 0.0000
vn 0.0000 -1.0000 0.0000
vn -0.9637 -0.2672 0.0000
vn 0.0000 -0.0006 1.0000
vn 0.0328 0.9623 -0.2699
vn 0.2295 -0.4507 -0.8627
vn 0.9206 -0.3737 0.1134
vn -0.8342 -0.4775 0.2760
vn -0.0601 -0.0708 0.9957
s off
f 1/1/1 7/2/1 3/3/1
f 4/4/2 7/5/2 8/6/2
f 7/5/3 6/7/3 8/6/3
f 2/8/4 8/9/4 6/7/4
f 1/10/5 4/11/5 2/12/5
f 6/13/6 1/14/6 2/8/6
f 1/1/7 5/15/7 7/2/7
f 4/4/8 3/16/8 7/5/8
f 7/5/9 5/17/9 6/7/9
f 2/8/4 4/18/4 8/9/4
f 1/10/10 3/19/10 4/11/10
f 6/13/11 5/20/11 1/14/11
